<svg width="3100" height="650" viewBox="0 0 3100 650" fill="none" xmlns="http://www.w3.org/2000/svg">
<path d="M265.663 569.016L372.844 526.232L426.434 558.32L378.248 634.317C374.87 640.285 368.566 644 361.81 644H320.267C313.174 644 306.644 639.947 303.379 633.642L265.663 569.016Z" fill="url(#paint0_linear_213_87)"/>
<path d="M95.2094 481.872L158.482 397.656L222.768 472.752L126.283 547.737L95.2094 481.872Z" fill="url(#paint1_linear_213_87)"/>
<path d="M600.941 272.907L469.217 119.111L278.723 118.998L467.077 326.387L589.908 461.606L663.313 367.144C668.83 360.051 668.604 349.918 662.637 343.163L600.941 272.907Z" fill="url(#paint2_linear_213_87)"/>
<path d="M652.842 511.483L595.424 618.105C590.696 626.774 580.113 630.377 571.106 626.324L61.9968 385.046L158.482 247.687L644.511 485.588C654.081 490.204 657.909 502.026 652.842 511.483Z" fill="url(#paint3_linear_213_87)"/>
<path d="M600.941 272.907L467.077 326.387L103.541 475.229C92.9576 479.62 88.5668 492.343 94.4212 502.251L150.714 598.739C155.217 606.508 164.562 609.998 173.118 607.071L597.901 462.056L664.439 367.031C669.392 359.938 668.942 350.256 663.2 343.726L600.941 272.907Z" fill="url(#paint4_linear_213_87)"/>
<path d="M53.5529 375.138L34.1883 323.572C31.5988 316.479 33.2876 308.598 38.8043 303.419L328.485 23.9733C348.075 5.05837 379.599 7.08498 396.599 28.3643L469.216 119.111L81.9243 384.145C71.7917 391.013 57.8311 386.622 53.5529 375.138Z" fill="url(#paint5_linear_213_87)"/>
<path d="M555.907 151.424C555.907 126.204 535.416 105.713 510.197 105.713H190.118C164.899 105.713 144.409 126.204 144.409 151.424V311.525V471.626C144.409 496.846 164.899 517.338 190.118 517.338H510.31C535.529 517.338 556.019 496.846 556.019 471.626V311.525V151.424H555.907Z" fill="#2B2B2B"/>
<path d="M457.958 392.251C449.964 379.416 440.169 360.952 418.891 343.951C407.52 334.831 407.182 317.83 418.215 308.26C418.328 308.148 418.441 308.148 418.441 308.035C466.852 265.814 462.349 190.492 388.831 169.889C314.187 148.947 251.477 188.803 237.291 250.277C226.596 296.889 228.059 325.937 230.311 354.985C237.967 453.725 250.014 463.633 288.18 457.44C326.346 451.248 305.068 417.359 298.538 396.642C289.756 368.72 289.643 353.746 307.882 352.62C331.525 351.044 376.334 367.369 390.745 415.67C405.944 466.673 430.487 460.593 453.454 455.977C476.422 451.135 476.76 422.2 457.958 392.251ZM311.147 300.379C299.101 297.902 293.246 286.193 294.597 255.231C295.723 230.799 315.425 214.249 342.558 216.163C370.367 218.189 391.983 227.084 392.096 250.502C392.208 271.444 363.387 291.259 339.181 297.227C327.81 300.154 318.465 301.843 311.147 300.379Z" fill="white"/>
<path d="M420.081 167.317L410.926 158.161L307.832 261.258L316.987 270.414L420.081 167.317Z" fill="#2B2B2B"/>
<path d="M436.124 183.446L426.969 174.291L334.464 266.8L343.619 275.955L436.124 183.446Z" fill="#2B2B2B"/>
<path d="M452.2 199.539L443.045 190.384L367.895 265.537L377.05 274.692L452.2 199.539Z" fill="#2B2B2B"/>
<path d="M468.34 215.586L459.185 206.431L295.828 369.794L304.983 378.949L468.34 215.586Z" fill="#2B2B2B"/>
<path d="M484.433 231.689L475.278 222.534L311.921 385.897L321.076 395.052L484.433 231.689Z" fill="#2B2B2B"/>
<path d="M500.525 247.792L491.37 238.637L328.013 402L337.168 411.155L500.525 247.792Z" fill="#2B2B2B"/>
<path d="M516.601 263.871L507.446 254.716L327.212 434.956L336.367 444.112L516.601 263.871Z" fill="#2B2B2B"/>
<path d="M532.693 279.974L523.538 270.819L343.304 451.059L352.459 460.215L532.693 279.974Z" fill="#2B2B2B"/>
<path d="M548.786 296.077L539.631 286.922L359.396 467.162L368.552 476.318L548.786 296.077Z" fill="#2B2B2B"/>
<path d="M522.957 354.125L513.802 344.97L387.701 471.075L396.856 480.23L522.957 354.125Z" fill="#2B2B2B"/>
<path d="M539.049 370.228L529.894 361.073L403.794 487.178L412.949 496.333L539.049 370.228Z" fill="#2B2B2B"/>
<path d="M937.007 385.046C932.841 385.721 926.649 386.284 918.318 386.847C909.986 387.41 900.529 387.748 889.946 387.86C879.363 387.973 868.217 388.086 856.509 388.198C844.8 388.311 833.766 388.311 823.296 388.311L822.283 422.087C821.832 431.207 821.382 440.214 820.819 448.771C820.256 457.44 819.806 465.997 819.355 474.441C819.13 480.296 816.316 483.336 810.799 483.336H776.123C770.832 483.336 768.017 480.296 767.566 474.216C766.666 454.963 766.103 437.625 765.878 421.975C765.653 406.325 765.653 390.563 765.765 374.688C765.878 358.7 766.215 341.699 766.891 323.572C767.566 305.445 768.355 284.279 769.143 259.959C770.494 254.33 773.196 251.403 777.361 251.403H778.712C780.514 251.178 782.765 251.065 785.805 250.952C788.732 250.84 791.885 250.502 795.15 249.826C804.945 249.151 816.766 248.588 830.501 248.138C844.237 247.687 857.972 247.462 871.595 247.462C885.218 247.462 897.94 247.687 909.649 248.138C921.358 248.588 930.139 249.264 935.994 250.052C938.358 250.502 939.709 251.853 939.934 254.33V274.596C939.934 276.172 939.709 277.073 939.258 277.411C938.808 277.748 938.02 278.086 937.007 278.537C932.841 279.437 926.649 280.113 918.318 280.451C909.986 280.901 900.529 281.239 889.946 281.464C879.363 281.689 868.217 281.802 856.509 281.914C844.8 282.027 833.766 282.027 823.296 282.027H821.945L822.958 312.538C823.183 319.519 823.296 326.499 823.296 333.367C823.296 340.235 823.296 347.216 823.296 354.196C828.362 353.971 833.541 353.859 838.833 353.859C844.237 353.859 849.641 353.746 855.045 353.521C863.151 353.521 871.257 353.521 879.476 353.521C887.695 353.521 895.35 353.633 902.556 353.859C909.761 354.084 916.291 354.421 922.033 354.872C927.775 355.322 932.503 355.773 935.994 356.223C938.358 356.448 939.709 357.799 939.934 360.164V380.767C939.934 382.118 939.709 383.019 939.258 383.582C938.921 384.145 938.133 384.708 937.007 385.046Z" fill="url(#paint6_linear_213_87)"/>
<path d="M1134.59 479.395C1133.02 480.296 1131.33 480.408 1129.3 479.845C1127.39 479.283 1125.7 478.044 1124.35 476.13C1119.06 467.01 1114.44 458.116 1110.28 449.784C1106.11 441.34 1102.06 433.121 1098.12 425.015C1095.75 425.24 1093.27 425.352 1090.8 425.352C1088.32 425.352 1085.73 425.352 1083.14 425.352C1075.26 425.578 1066.93 425.803 1058.26 426.028C1049.48 426.253 1041.15 426.366 1033.04 426.366H1015.7C1011.99 434.697 1007.94 442.916 1003.43 451.248C998.929 459.579 994.313 467.911 989.472 476.468C986.882 480.634 983.505 481.759 979.339 479.733L952.769 467.01C950.855 465.659 949.279 464.308 948.153 462.957C947.027 461.493 946.914 459.805 947.815 457.891C953.67 443.479 960.875 427.041 969.319 408.689C977.763 390.337 986.544 371.873 995.889 353.296C1005.12 334.718 1014.47 317.042 1023.7 300.266C1032.93 283.491 1041.71 269.417 1049.7 258.045C1051.84 254.78 1054.43 252.866 1057.36 252.529C1060.29 252.078 1062.88 252.866 1065.02 254.78V255.118C1066.82 256.019 1067.94 257.145 1068.62 258.721C1077.63 269.867 1086.52 283.828 1095.53 300.491C1104.53 317.155 1113.2 334.831 1121.76 353.183C1130.32 371.648 1138.31 390 1145.96 408.352C1153.62 426.704 1160.26 443.029 1166 457.44C1166.68 459.354 1166.45 461.156 1165.55 462.732C1164.54 464.308 1163.19 465.434 1161.5 466.335L1134.59 479.395ZM1030.45 395.629H1032.14C1039.8 395.629 1047.9 395.404 1056.57 394.841C1065.24 394.278 1073.35 394.053 1081 394.053H1084.94L1077.74 377.052C1074.47 369.171 1071.43 361.515 1068.73 354.084C1066.03 346.653 1063.33 339.222 1060.74 331.791L1059.39 328.864C1056.35 336.295 1053.19 343.838 1049.93 351.607C1046.66 359.375 1043.4 367.031 1040.13 374.688L1030.45 395.629Z" fill="url(#paint7_linear_213_87)"/>
<path d="M1197.87 418.147C1201.58 416.571 1204.06 417.359 1205.41 420.399C1208.9 427.379 1213.4 433.121 1219.03 437.625C1224.55 442.128 1230.4 445.506 1236.6 447.758C1242.67 450.01 1248.98 451.248 1255.28 451.248C1261.59 451.248 1267.44 450.122 1272.62 447.758C1277.91 445.506 1282.08 442.128 1285.34 437.737C1288.61 433.346 1290.64 427.83 1291.2 421.074C1291.42 416.683 1290.86 412.855 1289.51 409.59C1288.16 406.325 1285.34 402.947 1280.84 399.457C1276.34 395.967 1269.92 392.252 1261.7 388.311C1253.37 384.37 1242.22 379.642 1228.26 374.237C1215.2 368.946 1205.3 362.303 1198.77 354.196C1192.24 346.09 1188.97 334.831 1188.97 320.42C1188.97 307.81 1191.79 297.001 1197.3 288.107C1202.82 279.212 1209.91 272.119 1218.58 266.828C1227.25 261.423 1236.93 257.82 1247.74 255.906C1258.55 253.992 1269.24 253.542 1279.83 254.555C1290.41 255.681 1300.32 258.271 1309.44 262.549C1318.67 266.828 1325.88 272.457 1331.39 279.437L1333.98 283.378C1334.66 284.054 1334.77 285.18 1334.32 286.643L1319.57 302.068C1318.67 303.419 1317.43 304.432 1315.86 305.22C1314.17 306.008 1312.82 305.783 1311.8 304.77C1308.31 299.929 1302.57 295.875 1294.58 292.61C1286.58 289.345 1278.59 287.769 1270.48 287.882C1262.38 287.994 1255.28 290.246 1248.98 294.637C1242.79 299.028 1239.64 306.346 1239.64 316.592C1239.64 322.109 1241.77 326.837 1246.05 331.003C1250.33 335.169 1256.97 339.222 1266.21 343.163C1273.41 346.653 1281.97 350.031 1291.87 353.183C1301.78 356.336 1311.35 360.727 1320.36 366.469C1329.37 372.098 1336.8 379.529 1342.43 388.761C1348.05 397.881 1350.53 409.928 1349.63 424.79C1348.73 437.625 1344.56 448.771 1337.02 458.003C1329.48 467.236 1320.13 474.554 1308.99 479.846C1297.84 485.137 1285.57 488.177 1272.28 488.965C1259 489.866 1245.94 488.402 1233.33 484.574C1220.61 480.746 1209.12 474.441 1198.77 465.772C1188.41 456.99 1180.53 445.619 1175.35 431.32C1174 427.83 1174.9 425.69 1177.94 424.79L1197.87 418.147Z" fill="url(#paint8_linear_213_87)"/>
<path d="M1545.75 287.093C1540.91 287.769 1533.59 288.219 1523.8 288.557C1514 288.895 1502.97 289.233 1490.7 289.683C1488.79 289.683 1486.98 289.683 1485.3 289.683C1483.61 289.683 1481.81 289.908 1479.89 290.358C1480.79 304.319 1481.35 318.506 1481.58 332.804C1481.81 347.103 1481.81 361.852 1481.58 376.827C1481.35 394.053 1481.02 410.828 1480.45 426.929C1479.89 443.141 1478.99 459.129 1477.64 475.117C1477.41 480.634 1474.71 483.336 1469.42 483.336H1434.41C1432.04 483.336 1430.02 482.548 1428.55 481.084C1426.98 479.508 1426.19 477.594 1425.96 475.229C1425.51 461.944 1425.17 449.559 1424.84 438.188C1424.5 426.816 1424.39 415.782 1424.39 404.974C1424.39 394.165 1424.5 383.244 1424.72 372.211C1424.95 361.177 1425.29 349.242 1425.74 336.295C1425.96 329.764 1426.08 322.559 1426.19 314.79C1426.3 307.022 1426.53 299.028 1426.98 290.696H1412.9C1400.63 290.696 1389.6 290.471 1379.69 289.908C1369.78 289.345 1362.24 288.895 1357.29 288.444C1355.71 288.444 1355.03 287.093 1355.03 284.504L1354.7 263.9C1354.7 262.549 1355.03 261.648 1355.82 261.085C1356.61 260.522 1357.4 260.185 1358.3 259.959C1363.14 259.284 1370.23 258.608 1379.8 258.045C1389.26 257.37 1400.07 256.92 1412.12 256.582C1424.16 256.244 1436.77 256.019 1449.94 255.906C1463.12 255.794 1475.84 255.794 1488.11 255.906C1500.38 256.019 1511.53 256.244 1521.66 256.582C1531.79 256.92 1539.67 257.482 1545.42 258.383C1548.23 258.834 1549.69 260.297 1549.69 262.662V282.702C1549.69 284.279 1549.47 285.179 1548.91 285.63C1548.01 285.967 1547.1 286.53 1545.75 287.093Z" fill="url(#paint9_linear_213_87)"/>
<path d="M1790.74 262.211C1801.88 267.728 1810.67 275.271 1817.08 285.179C1823.5 294.974 1827.55 305.558 1829.02 316.929C1830.59 328.301 1829.47 339.56 1825.75 350.706C1822.04 361.852 1815.39 371.197 1805.71 378.853C1801.77 381.893 1797.49 384.483 1792.99 386.734L1809.31 411.954C1814.72 420.736 1819.79 429.518 1824.4 438.3C1829.02 447.195 1833.3 455.864 1837.12 464.308C1838.92 467.348 1837.46 470.163 1832.85 472.865L1804.36 490.204C1799.52 492.793 1796.37 492.906 1794.9 490.541C1790.06 484.011 1785.78 477.931 1781.84 472.302C1777.9 466.785 1774.3 461.156 1771.04 455.639C1767.77 450.122 1764.39 444.492 1761.02 438.75C1757.64 433.121 1753.92 426.929 1750.1 420.398C1748.18 416.908 1746.15 413.193 1744.24 409.477C1742.33 405.649 1740.08 401.596 1737.71 397.205C1735.8 397.43 1733.77 397.543 1731.86 397.543C1729.94 397.543 1727.92 397.543 1726 397.543C1722.06 397.768 1718.23 397.881 1714.41 397.881C1710.58 397.881 1706.75 397.881 1702.81 397.881L1702.13 426.703C1701.91 435.823 1701.46 444.83 1700.78 453.387C1700.11 462.056 1699.54 470.613 1699.09 479.057C1698.87 484.912 1696.05 487.952 1690.54 487.952H1655.86C1653.5 487.952 1651.47 487.051 1650.01 485.362C1648.43 483.561 1647.64 481.422 1647.42 478.832C1646.52 459.579 1645.95 442.241 1645.73 426.591C1645.5 410.941 1645.5 395.291 1645.62 379.416C1645.73 363.541 1646.07 346.653 1646.74 328.526C1647.42 310.399 1648.21 289.12 1648.99 264.688C1649.44 261.873 1650.34 259.847 1651.58 258.833L1652.93 257.482L1654.62 256.469C1655.3 256.469 1655.86 256.357 1656.31 256.131H1656.65L1668.13 255.118C1676.46 254.217 1686.37 253.542 1697.97 253.204C1709.56 252.754 1721.27 252.754 1733.21 253.204C1745.14 253.654 1756.29 254.555 1766.76 256.019C1777 257.257 1785.11 259.396 1790.74 262.211ZM1702.58 317.267C1703.03 326.274 1703.26 335.056 1703.26 343.613C1703.26 352.282 1703.15 361.064 1702.92 369.959H1714.07C1721.27 369.959 1728.59 369.508 1736.02 368.495C1743.45 367.482 1749.98 365.905 1755.72 363.766C1759.66 361.965 1762.93 359.15 1765.41 355.097C1767.88 351.044 1769.68 346.315 1770.81 340.798C1771.94 335.394 1772.27 329.652 1771.94 323.572C1771.6 317.605 1770.59 311.975 1768.78 306.684C1766.98 301.392 1764.39 296.888 1760.9 293.06C1757.41 289.232 1753.25 286.643 1748.41 285.404C1741.88 283.828 1733.55 283.153 1723.53 283.153C1719.58 283.153 1715.87 283.265 1712.27 283.265C1708.66 283.378 1705.06 283.49 1701.57 283.716L1702.58 317.267Z" fill="#087CFA"/>
<path d="M2016.13 380.542C2011.97 381.218 2005.78 381.781 1997.44 382.231C1989.11 382.681 1979.77 383.019 1969.3 383.244C1958.83 383.469 1947.79 383.695 1936.2 383.92C1924.6 384.145 1913.46 384.258 1902.76 384.258H1902.42L1901.41 422.313L1899.72 451.135H1902.99C1913.91 451.135 1925.28 451.135 1937.1 451.023C1948.92 450.91 1960.29 450.91 1971.32 451.023C1982.36 451.135 1992.38 451.248 2001.27 451.473C2010.28 451.698 2017.26 452.261 2022.21 453.162C2024.58 453.387 2025.82 454.851 2025.82 457.44L2026.15 478.044C2026.15 479.845 2024.91 481.084 2022.55 481.985C2017.03 482.885 2008.36 483.673 1996.32 484.236C1984.27 484.912 1970.99 485.362 1956.46 485.7C1941.94 486.038 1927.3 486.15 1912.44 486.038C1897.58 485.925 1884.75 485.475 1873.83 484.574L1856.83 483.561H1855.14C1849.85 483.561 1847.03 480.521 1846.58 474.441C1845.68 455.188 1845.12 437.85 1844.89 422.2C1844.67 406.55 1844.67 390.788 1844.78 374.913C1844.89 358.925 1845.23 341.924 1845.9 323.797C1846.58 305.671 1847.37 284.504 1848.16 260.185C1849.51 254.555 1852.32 251.628 1856.71 251.628H1857.73C1859.53 251.403 1861.78 251.29 1864.82 251.178C1867.75 251.065 1870.9 250.727 1874.16 250.052C1883.96 249.376 1895.78 248.813 1909.52 248.363C1923.25 247.912 1936.99 247.687 1950.61 247.687C1964.23 247.687 1976.95 247.912 1988.66 248.363C2000.37 248.813 2009.15 249.489 2015.01 250.277C2017.6 250.952 2018.95 252.303 2018.95 254.555V274.821C2018.95 276.397 2018.72 277.298 2018.27 277.636C2017.82 277.974 2017.03 278.311 2016.02 278.762C2011.86 279.662 2005.66 280.338 1997.33 280.676C1989 281.126 1979.66 281.464 1969.19 281.689C1958.71 281.914 1947.68 282.027 1936.09 282.139C1924.49 282.252 1913.34 282.252 1902.65 282.252H1900.96L1901.97 312.764C1902.2 318.843 1902.31 325.036 1902.31 331.116C1902.31 337.195 1902.31 343.5 1902.31 349.805C1907.38 349.58 1912.56 349.468 1917.85 349.468C1923.25 349.468 1928.65 349.355 1934.06 349.13C1942.17 349.13 1950.27 349.13 1958.49 349.13C1966.71 349.13 1974.36 349.242 1981.57 349.468C1988.78 349.693 1995.31 349.918 2001.05 350.256C2006.79 350.593 2011.52 351.044 2015.01 351.719C2017.6 352.17 2018.95 353.521 2018.95 355.998V375.926C2018.95 377.502 2018.72 378.403 2018.27 378.853C2018.05 379.304 2017.26 379.867 2016.13 380.542Z" fill="#087CFA"/>
<path d="M2209.44 515.536C2207.53 513.96 2204.71 511.258 2201.11 507.317C2197.51 503.377 2193.68 498.76 2189.51 493.581C2189.06 492.681 2188.5 491.892 2187.71 491.104C2186.92 490.316 2186.36 489.641 2185.91 488.965L2182.98 489.641C2177.69 490.767 2172.29 491.667 2166.77 492.568C2161.26 493.469 2155.63 493.919 2149.88 493.919H2149.21C2137.61 493.919 2126.35 492.681 2115.32 490.316C2104.29 487.952 2094.04 484.124 2084.7 478.832C2075.35 473.541 2067.25 467.123 2060.49 459.467C2053.74 451.811 2048.22 443.367 2044.05 434.247C2039.89 425.127 2036.74 415.219 2034.71 404.636C2032.68 394.053 2031.56 383.019 2031.56 371.76C2031.56 360.389 2032.68 349.355 2035.05 338.546C2037.3 327.738 2040.79 317.718 2045.41 308.373C2050.02 299.14 2055.54 290.696 2062.07 283.153C2068.6 275.609 2076.14 269.642 2084.7 265.251C2093.82 260.41 2104.06 256.807 2115.21 254.443C2126.35 252.078 2137.72 250.84 2149.32 250.84H2150.33C2161.93 250.84 2173.19 251.966 2184.22 254.105C2195.26 256.244 2205.5 259.959 2214.85 265.251C2223.18 269.642 2230.61 275.609 2237.25 283.153C2243.89 290.696 2249.52 299.14 2253.91 308.373C2258.42 317.605 2261.79 327.738 2264.27 338.546C2266.63 349.355 2267.87 360.501 2267.87 371.76C2267.87 394.953 2263.37 415.445 2254.48 433.346C2248.17 446.181 2239.61 457.103 2228.92 466.11C2230.49 468.699 2231.96 471.176 2233.53 473.428C2235.11 475.68 2236.35 478.044 2237.48 480.521C2240.06 485.588 2241.87 489.528 2242.77 492.681C2243.44 494.032 2242.2 495.721 2239.16 497.972L2215.52 514.973C2212.48 515.874 2210.57 516.099 2209.44 515.536ZM2204.83 415.895C2209.67 402.835 2212.03 388.086 2212.03 371.648C2212.03 363.541 2211.13 355.547 2209.44 347.779C2207.64 339.898 2205.28 332.692 2202.12 326.049C2198.97 319.406 2195.37 313.439 2191.32 308.147C2187.26 302.856 2182.98 298.915 2178.37 295.988C2169.02 290.358 2159.34 287.431 2149.55 287.431C2139.75 287.431 2130.07 290.246 2120.72 295.988C2115.88 298.803 2111.61 302.856 2108 308.147C2104.29 313.439 2101.02 319.294 2098.32 326.049C2095.62 332.692 2093.48 340.01 2092.13 347.779C2090.66 355.66 2089.99 363.654 2089.99 371.648C2089.99 388.198 2092.92 403.06 2098.66 416.233C2104.4 429.293 2112.06 438.751 2121.4 444.38C2126.02 446.97 2130.63 449.109 2135.36 450.798C2140.09 452.486 2144.82 453.275 2149.66 453.275C2152.7 453.275 2156.3 452.824 2160.47 451.923L2154.95 443.029C2153.6 440.665 2152.59 438.413 2151.69 436.499C2150.78 434.585 2150.11 433.009 2149.77 431.883C2149.55 431.207 2150.9 429.856 2153.71 427.604L2177.24 410.941C2180.28 408.802 2182.31 408.239 2183.1 409.252C2185.91 411.054 2188.95 413.756 2192.22 417.471C2193.34 418.597 2194.47 419.948 2195.82 421.524C2197.17 423.213 2198.52 424.79 2200.1 426.253C2202.12 422.876 2203.81 419.385 2204.83 415.895Z" fill="url(#paint10_linear_213_87)"/>
<path d="M2460.73 269.417C2459.61 264.35 2456.79 261.873 2452.17 261.873H2418.06C2415.7 261.873 2413.56 262.324 2411.64 263.224C2409.73 264.125 2408.83 265.589 2408.83 267.841C2408.15 281.351 2407.82 294.637 2407.82 307.472C2407.82 320.307 2407.82 333.03 2407.7 345.639C2407.59 358.249 2407.37 370.747 2407.03 383.357C2406.69 395.967 2405.79 408.577 2404.21 421.187C2403.31 429.068 2399.94 435.711 2393.86 441.34C2387.89 446.857 2379.44 449.672 2368.75 449.672H2367.74H2367.4C2356.7 449.672 2348.37 446.857 2342.29 441.34C2336.32 435.823 2332.72 429.068 2331.6 421.187C2330.25 408.577 2329.34 395.854 2328.78 383.357C2328.22 370.747 2327.88 358.249 2327.77 345.639C2327.66 333.03 2327.66 320.307 2327.66 307.472C2327.66 294.637 2327.43 281.351 2326.98 267.841C2326.98 265.701 2326.08 264.125 2324.39 263.224C2322.59 262.324 2320.56 261.873 2318.2 261.873H2284.09C2279.47 261.873 2276.65 264.35 2275.53 269.417C2274.4 289.908 2273.73 308.71 2273.39 325.599C2273.05 342.487 2273.05 357.912 2273.28 371.648C2273.5 385.383 2274.18 397.656 2275.19 408.464C2276.32 419.273 2277.78 428.843 2279.81 437.174C2281.61 445.055 2285.21 452.036 2290.62 458.341C2296.02 464.533 2302.89 469.825 2310.88 474.103C2318.99 478.382 2327.88 481.647 2337.79 483.899C2347.58 486.15 2357.6 487.389 2367.62 487.389C2378.09 487.389 2388.23 486.263 2398.13 483.899C2407.93 481.647 2416.94 478.382 2425.04 474.103C2433.15 469.825 2439.9 464.646 2445.31 458.341C2450.71 452.149 2454.31 445.055 2456.12 437.174C2459.61 420.173 2461.63 398.331 2462.31 371.648C2463.32 344.964 2462.65 310.962 2460.73 269.417Z" fill="url(#paint11_linear_213_87)"/>
<path d="M2639.63 380.542C2635.46 381.218 2629.27 381.781 2620.94 382.231C2612.61 382.681 2603.26 383.019 2592.79 383.244C2582.32 383.469 2571.29 383.695 2559.69 383.92C2548.1 384.145 2536.95 384.258 2526.26 384.258H2525.92L2524.9 422.313L2523.22 451.135H2526.48C2537.4 451.135 2548.77 451.135 2560.59 451.023C2572.42 450.91 2583.79 450.91 2594.82 451.023C2605.85 451.135 2615.87 451.248 2624.77 451.473C2633.77 451.698 2640.75 452.261 2645.71 453.162C2648.07 453.387 2649.31 454.851 2649.31 457.44L2649.65 478.044C2649.65 479.845 2648.41 481.084 2646.05 481.985C2640.53 482.885 2631.86 483.673 2619.81 484.236C2607.77 484.912 2594.48 485.362 2579.96 485.7C2565.44 486.038 2550.8 486.15 2535.94 486.038C2521.08 485.925 2508.24 485.475 2497.32 484.574L2480.32 483.561H2478.63C2473.34 483.561 2470.53 480.521 2470.08 474.441C2469.17 455.188 2468.61 437.85 2468.39 422.2C2468.16 406.55 2468.16 390.788 2468.27 374.913C2468.39 358.925 2468.72 341.924 2469.4 323.797C2470.08 305.671 2470.86 284.504 2471.65 260.185C2473 254.555 2475.82 251.628 2480.21 251.628H2481.22C2483.02 251.403 2485.27 251.29 2488.31 251.178C2491.24 251.065 2494.39 250.727 2497.66 250.052C2507.45 249.376 2519.28 248.813 2533.01 248.363C2546.75 247.912 2560.48 247.687 2574.1 247.687C2587.73 247.687 2600.45 247.912 2612.16 248.363C2623.87 248.813 2632.65 249.489 2638.5 250.277C2641.09 250.952 2642.44 252.303 2642.44 254.555V274.821C2642.44 276.397 2642.22 277.298 2641.77 277.636C2641.32 277.974 2640.53 278.311 2639.52 278.762C2635.35 279.662 2629.16 280.338 2620.83 280.676C2612.5 281.126 2603.15 281.464 2592.68 281.689C2582.21 281.914 2571.18 282.027 2559.58 282.139C2547.98 282.252 2536.84 282.252 2526.14 282.252H2524.45L2525.47 312.764C2525.69 318.843 2525.81 325.036 2525.81 331.116C2525.81 337.195 2525.81 343.5 2525.81 349.805C2530.87 349.58 2536.05 349.468 2541.34 349.468C2546.75 349.468 2552.15 349.355 2557.55 349.13C2565.66 349.13 2573.77 349.13 2581.99 349.13C2590.2 349.13 2597.86 349.242 2605.07 349.468C2612.27 349.693 2618.8 349.918 2624.54 350.256C2630.28 350.593 2635.01 351.044 2638.5 351.719C2641.09 352.17 2642.44 353.521 2642.44 355.998V375.926C2642.44 377.502 2642.22 378.403 2641.77 378.853C2641.43 379.304 2640.64 379.867 2639.63 380.542Z" fill="url(#paint12_linear_213_87)"/>
<path d="M2681.17 418.147C2684.89 416.571 2687.36 417.359 2688.72 420.399C2692.21 427.379 2696.71 433.121 2702.34 437.625C2707.85 442.128 2713.71 445.506 2719.9 447.758C2725.98 450.01 2732.29 451.248 2738.59 451.248C2744.9 451.248 2750.75 450.122 2755.93 447.758C2761.22 445.506 2765.39 442.128 2768.65 437.737C2771.92 433.346 2773.94 427.83 2774.51 421.074C2774.73 416.683 2774.17 412.855 2772.82 409.59C2771.47 406.325 2768.65 402.947 2764.15 399.457C2759.64 395.967 2753.23 392.252 2745.01 388.311C2736.68 384.37 2725.53 379.642 2711.57 374.237C2698.51 368.946 2688.6 362.303 2682.07 354.196C2675.54 346.09 2672.28 334.831 2672.28 320.42C2672.28 307.81 2675.09 297.001 2680.61 288.107C2686.13 279.212 2693.22 272.119 2701.89 266.828C2710.56 261.423 2720.24 257.82 2731.05 255.906C2741.86 253.992 2752.55 253.542 2763.13 254.555C2773.72 255.681 2783.62 258.271 2792.74 262.549C2801.86 266.828 2809.18 272.457 2814.7 279.437L2817.29 283.378C2817.96 284.054 2818.08 285.18 2817.63 286.643L2802.88 302.068C2801.98 303.419 2800.74 304.432 2799.16 305.22C2797.47 306.008 2796.12 305.783 2795.11 304.77C2791.62 299.929 2785.88 295.875 2777.88 292.61C2769.89 289.345 2761.9 287.769 2753.79 287.882C2745.68 287.994 2738.59 290.246 2732.29 294.637C2726.09 299.028 2722.94 306.346 2722.94 316.592C2722.94 322.109 2725.08 326.837 2729.36 331.003C2733.64 335.169 2740.28 339.222 2749.51 343.163C2756.72 346.653 2765.27 350.031 2775.18 353.183C2785.09 356.336 2794.66 360.727 2803.66 366.469C2812.67 372.098 2820.1 379.529 2825.73 388.761C2831.36 397.881 2833.84 409.928 2832.94 424.79C2832.04 437.625 2827.87 448.771 2820.33 458.003C2812.78 467.236 2803.44 474.554 2792.29 479.846C2781.15 485.137 2768.88 488.177 2755.59 488.965C2742.31 489.866 2729.25 488.402 2716.64 484.574C2703.91 480.746 2692.43 474.441 2682.07 465.772C2671.72 456.99 2663.83 445.619 2658.66 431.32C2657.3 427.83 2658.2 425.69 2661.24 424.79L2681.17 418.147Z" fill="url(#paint13_linear_213_87)"/>
<path d="M3029.17 287.094C3024.33 287.769 3017.01 288.219 3007.22 288.557C2997.42 288.895 2986.39 289.233 2974.12 289.683C2972.2 289.683 2970.4 289.683 2968.71 289.683C2967.03 289.683 2965.22 289.908 2963.31 290.359C2964.21 304.32 2964.77 318.506 2965 332.805C2965.22 347.103 2965.22 361.852 2965 376.827C2964.77 394.053 2964.44 410.829 2963.87 426.929C2963.31 443.142 2962.41 459.129 2961.06 475.117C2960.83 480.634 2958.13 483.336 2952.84 483.336H2917.71C2915.35 483.336 2913.32 482.548 2911.86 481.084C2910.28 479.508 2909.49 477.594 2909.27 475.229C2908.82 461.944 2908.48 449.559 2908.14 438.188C2907.81 426.816 2907.69 415.783 2907.69 404.974C2907.69 394.165 2907.81 383.244 2908.03 372.211C2908.26 361.177 2908.59 349.243 2909.04 336.295C2909.27 329.765 2909.38 322.559 2909.49 314.79C2909.61 307.022 2909.83 299.028 2910.28 290.696H2896.21C2883.94 290.696 2872.9 290.471 2863 289.908C2853.09 289.345 2845.55 288.895 2840.59 288.445C2839.02 288.445 2838.34 287.094 2838.34 284.504L2838 263.9C2838 262.549 2838.34 261.648 2839.13 261.085C2839.92 260.523 2840.71 260.185 2841.61 259.96C2846.45 259.284 2853.54 258.609 2863.11 258.046C2872.57 257.37 2883.37 256.92 2895.42 256.582C2907.47 256.244 2920.08 256.019 2933.25 255.906C2946.42 255.794 2959.14 255.794 2971.42 255.906C2983.69 256.019 2994.83 256.244 3004.97 256.582C3015.1 256.92 3022.98 257.483 3028.72 258.383C3031.54 258.834 3033 260.297 3033 262.662V282.703C3033 284.279 3032.78 285.179 3032.21 285.63C3031.31 285.968 3030.41 286.531 3029.17 287.094Z" fill="url(#paint14_linear_213_87)"/>
<defs>
<linearGradient id="paint0_linear_213_87" x1="345.991" y1="632.22" x2="345.991" y2="551.26" gradientUnits="userSpaceOnUse">
<stop stop-color="#EE197D"/>
<stop offset="0.0692985" stop-color="#EF247B"/>
<stop offset="0.7125" stop-color="#F38A68"/>
<stop offset="1" stop-color="#F5B361"/>
</linearGradient>
<linearGradient id="paint1_linear_213_87" x1="99.3807" y1="501.846" x2="214.736" y2="423.733" gradientUnits="userSpaceOnUse">
<stop offset="0.0753616" stop-color="#6B57FF"/>
<stop offset="0.1192" stop-color="#715AF5"/>
<stop offset="0.1947" stop-color="#8063D9"/>
<stop offset="0.2925" stop-color="#9971AC"/>
<stop offset="0.409" stop-color="#BC846E"/>
<stop offset="0.5399" stop-color="#E89D20"/>
<stop offset="0.5722" stop-color="#F3A30B"/>
<stop offset="0.7385" stop-color="#F9A600"/>
</linearGradient>
<linearGradient id="paint2_linear_213_87" x1="286.668" y1="51.7641" x2="567.876" y2="327.954" gradientUnits="userSpaceOnUse">
<stop stop-color="#3DEA62"/>
<stop offset="0.8132" stop-color="#21D789"/>
<stop offset="0.8316" stop-color="#1FCF93"/>
<stop offset="0.863" stop-color="#19B9AF"/>
<stop offset="0.9035" stop-color="#0F95DB"/>
<stop offset="0.9284" stop-color="#087CFA"/>
</linearGradient>
<linearGradient id="paint3_linear_213_87" x1="62.0084" y1="437.81" x2="655.084" y2="437.81" gradientUnits="userSpaceOnUse">
<stop offset="0.4145" stop-color="#FFF84A"/>
<stop offset="0.5205" stop-color="#FEEE41"/>
<stop offset="0.7025" stop-color="#FCD228"/>
<stop offset="0.9362" stop-color="#F9A600"/>
</linearGradient>
<linearGradient id="paint4_linear_213_87" x1="133.605" y1="557.727" x2="672.797" y2="336.396" gradientUnits="userSpaceOnUse">
<stop stop-color="#5E5CFE"/>
<stop offset="0.3171" stop-color="#087CFA"/>
<stop offset="0.7238" stop-color="#087CFA"/>
<stop offset="0.772" stop-color="#0886F9"/>
<stop offset="0.8544" stop-color="#07A2F6"/>
<stop offset="0.9362" stop-color="#07C3F2"/>
</linearGradient>
<linearGradient id="paint5_linear_213_87" x1="75.4399" y1="364.915" x2="409.973" y2="61.4534" gradientUnits="userSpaceOnUse">
<stop stop-color="#FCF84A"/>
<stop offset="0.4317" stop-color="#3DEA62"/>
<stop offset="0.7591" stop-color="#3DEA62"/>
<stop offset="1" stop-color="#21D789"/>
</linearGradient>
<linearGradient id="paint6_linear_213_87" x1="765.814" y1="365.433" x2="939.996" y2="365.433" gradientUnits="userSpaceOnUse">
<stop stop-color="#EE197D"/>
<stop offset="0.0692985" stop-color="#EF247B"/>
<stop offset="0.7125" stop-color="#F38A68"/>
<stop offset="1" stop-color="#F5B361"/>
</linearGradient>
<linearGradient id="paint7_linear_213_87" x1="947.273" y1="366.504" x2="1166.44" y2="366.504" gradientUnits="userSpaceOnUse">
<stop stop-color="#FCF84A"/>
<stop offset="0.4317" stop-color="#3DEA62"/>
<stop offset="0.7591" stop-color="#3DEA62"/>
<stop offset="1" stop-color="#21D789"/>
</linearGradient>
<linearGradient id="paint8_linear_213_87" x1="1174.95" y1="371.652" x2="1350.01" y2="371.652" gradientUnits="userSpaceOnUse">
<stop stop-color="#3DEA62"/>
<stop offset="0.4006" stop-color="#21D789"/>
<stop offset="0.4845" stop-color="#1FCF93"/>
<stop offset="0.6286" stop-color="#19B9AF"/>
<stop offset="0.8142" stop-color="#0F95DB"/>
<stop offset="0.9284" stop-color="#087CFA"/>
</linearGradient>
<linearGradient id="paint9_linear_213_87" x1="1354.41" y1="369.569" x2="1549.34" y2="369.569" gradientUnits="userSpaceOnUse">
<stop offset="0.1281" stop-color="#07C3F2"/>
<stop offset="1" stop-color="#087CFA"/>
</linearGradient>
<linearGradient id="paint10_linear_213_87" x1="2031.55" y1="383.31" x2="2267.76" y2="383.31" gradientUnits="userSpaceOnUse">
<stop stop-color="#087CFA"/>
<stop offset="1" stop-color="#5E5CFE"/>
</linearGradient>
<linearGradient id="paint11_linear_213_87" x1="2273.52" y1="374.608" x2="2462.93" y2="374.608" gradientUnits="userSpaceOnUse">
<stop stop-color="#6B57FF"/>
<stop offset="1" stop-color="#087CFA"/>
</linearGradient>
<linearGradient id="paint12_linear_213_87" x1="2468.36" y1="366.684" x2="2649.75" y2="366.684" gradientUnits="userSpaceOnUse">
<stop stop-color="#087CFA"/>
<stop offset="0.5536" stop-color="#21D789"/>
<stop offset="0.6867" stop-color="#28DC7F"/>
<stop offset="0.9146" stop-color="#3CE963"/>
<stop offset="0.9246" stop-color="#3DEA62"/>
</linearGradient>
<linearGradient id="paint13_linear_213_87" x1="2658.33" y1="371.652" x2="2833.38" y2="371.652" gradientUnits="userSpaceOnUse">
<stop stop-color="#21D789"/>
<stop offset="0.5266" stop-color="#3DEA62"/>
<stop offset="0.8918" stop-color="#FCF84A"/>
<stop offset="1" stop-color="#FCF84A"/>
</linearGradient>
<linearGradient id="paint14_linear_213_87" x1="2837.79" y1="369.57" x2="3032.72" y2="369.57" gradientUnits="userSpaceOnUse">
<stop stop-color="#FFF84A"/>
<stop offset="0.2614" stop-color="#FDDF34"/>
<stop offset="0.749" stop-color="#FAB60E"/>
<stop offset="1" stop-color="#F9A600"/>
</linearGradient>
</defs>
</svg>
